HIERARCHY
ROOT Hips
{
	OFFSET 0.000000 71.427986 0.000000
	CHANNELS 6 Xposition Yposition Zposition Xrotation Yrotation Zrotation
	JOINT Pelvis
	{
		OFFSET 0.000000 0.000000 0.000000
		CHANNELS 3 Xrotation Yrotation Zrotation
		JOINT LeftUpLeg
		{
			OFFSET 6.797100 -2.508499 -1.318700
			CHANNELS 3 Xrotation Yrotation Zrotation
			JOINT LeftLeg
			{
				OFFSET 0.069008 -29.241863 0.690200
				CHANNELS 3 Xrotation Yrotation Zrotation
				JOINT LeftFoot
				{
					OFFSET -0.069008 -29.568123 -0.266800
					CHANNELS 3 Xrotation Yrotation Zrotation
					JOINT LeftToeBase
					{
						OFFSET 3.145500 -8.631000 16.059900
						CHANNELS 3 Xrotation Yrotation Zrotation
						End Site
						{
							OFFSET 0.000000 18.501587 0.000000
						}
					}
				}
			}
			JOINT Left_ShortSleeve
			{
				OFFSET 0.265923 -10.480953 1.153800
				CHANNELS 3 Xrotation Yrotation Zrotation
				End Site
				{
					OFFSET 1.725763 19.823879 0.000000
				}
			}
		}
		JOINT RightUpLeg
		{
			OFFSET -6.797100 -2.508499 -1.318700
			CHANNELS 3 Xrotation Yrotation Zrotation
			JOINT RightLeg
			{
				OFFSET -0.082453 -29.241932 0.688000
				CHANNELS 3 Xrotation Yrotation Zrotation
				JOINT RightFoot
				{
					OFFSET 0.082453 -29.568058 -0.264600
					CHANNELS 3 Xrotation Yrotation Zrotation
					JOINT RightToeBase
					{
						OFFSET -3.115300 -8.682800 16.113400
						CHANNELS 3 Xrotation Yrotation Zrotation
						End Site
						{
							OFFSET 0.000000 18.567114 0.000000
						}
					}
				}
			}
			JOINT Right_ShortSleeve
			{
				OFFSET -0.265923 -10.480953 1.153800
				CHANNELS 3 Xrotation Yrotation Zrotation
				End Site
				{
					OFFSET -1.725766 19.823910 0.000000
				}
			}
		}
	}
	JOINT Spine
	{
		OFFSET 0.000000 13.368103 0.470500
		CHANNELS 3 Xrotation Yrotation Zrotation
		JOINT Spine1
		{
			OFFSET 0.147000 13.837402 0.538800
			CHANNELS 3 Xrotation Yrotation Zrotation
			JOINT Spine2
			{
				OFFSET 0.168000 16.242897 -1.435500
				CHANNELS 3 Xrotation Yrotation Zrotation
				JOINT Neck
				{
					OFFSET 0.217200 18.631500 -1.679100
					CHANNELS 3 Xrotation Yrotation Zrotation
					JOINT Head
					{
						OFFSET 0.000000 6.599396 1.385900
						CHANNELS 3 Xrotation Yrotation Zrotation
						JOINT Hat
						{
							OFFSET -0.532200 27.220596 -10.096100
							CHANNELS 3 Xrotation Yrotation Zrotation
							End Site
							{
								OFFSET 0.000000 22.029861 0.000000
							}
						}
						JOINT HairD
						{
							OFFSET -10.777400 17.437393 -1.325900
							CHANNELS 3 Xrotation Yrotation Zrotation
							JOINT HairD1
							{
								OFFSET -3.290299 -11.051193 1.062200
								CHANNELS 3 Xrotation Yrotation Zrotation
								End Site
								{
									OFFSET 0.000000 11.579437 0.000000
								}
							}
						}
						JOINT HairB
						{
							OFFSET -10.777400 17.437393 1.467900
							CHANNELS 3 Xrotation Yrotation Zrotation
							JOINT HairB1
							{
								OFFSET -1.561200 -12.956299 3.590200
								CHANNELS 3 Xrotation Yrotation Zrotation
								End Site
								{
									OFFSET 0.000000 13.534866 0.000000
								}
							}
						}
						JOINT HairA
						{
							OFFSET 9.713100 17.437393 1.467900
							CHANNELS 3 Xrotation Yrotation Zrotation
							JOINT HairA1
							{
								OFFSET 1.561200 -12.956299 3.590200
								CHANNELS 3 Xrotation Yrotation Zrotation
								End Site
								{
									OFFSET 0.000000 13.534866 0.000000
								}
							}
						}
						JOINT HairC
						{
							OFFSET 9.713100 17.437393 -1.325900
							CHANNELS 3 Xrotation Yrotation Zrotation
							JOINT HairC1
							{
								OFFSET 3.290300 -11.051193 1.062200
								CHANNELS 3 Xrotation Yrotation Zrotation
								End Site
								{
									OFFSET 0.000000 11.579437 0.000000
								}
							}
						}
					}
				}
				JOINT LeftShoulder
				{
					OFFSET 5.101800 15.108002 -2.763700
					CHANNELS 3 Xrotation Yrotation Zrotation
					JOINT LeftArm
					{
						OFFSET 9.825497 2.506317 -1.597400
						CHANNELS 3 Xrotation Yrotation Zrotation
						JOINT LeftForeArm
						{
							OFFSET 21.966244 0.000000 0.000000
							CHANNELS 3 Xrotation Yrotation Zrotation
							JOINT LeftHand
							{
								OFFSET 33.879036 0.000000 0.000000
								CHANNELS 3 Xrotation Yrotation Zrotation
								JOINT LeftHandThumb1
								{
									OFFSET 6.715286 -2.359680 3.363841
									CHANNELS 3 Xrotation Yrotation Zrotation
									JOINT LeftHandThumb2
									{
										OFFSET 2.507072 -1.447464 1.447461
										CHANNELS 3 Xrotation Yrotation Zrotation
										JOINT LeftHandThumb3
										{
											OFFSET 2.898338 -1.673355 1.673357
											CHANNELS 3 Xrotation Yrotation Zrotation
											End Site
											{
												OFFSET -0.295959 3.727692 -0.131651
											}
										}
									}
								}
								JOINT LeftHandIndex1
								{
									OFFSET 14.190811 -0.254547 3.840278
									CHANNELS 3 Xrotation Yrotation Zrotation
									JOINT LeftHandIndex2
									{
										OFFSET 3.551727 0.000000 -0.000000
										CHANNELS 3 Xrotation Yrotation Zrotation
										JOINT LeftHandIndex3
										{
											OFFSET 2.894196 0.000000 0.000000
											CHANNELS 3 Xrotation Yrotation Zrotation
											End Site
											{
												OFFSET -1.000603 2.690872 0.366626
											}
										}
									}
								}
								JOINT LeftHandMiddle1
								{
									OFFSET 13.776489 0.000000 0.000000
									CHANNELS 3 Xrotation Yrotation Zrotation
									JOINT LeftHandMiddle2
									{
										OFFSET 3.438232 0.000000 0.000000
										CHANNELS 3 Xrotation Yrotation Zrotation
										JOINT LeftHandMiddle3
										{
											OFFSET 3.691551 0.000000 0.000000
											CHANNELS 3 Xrotation Yrotation Zrotation
											End Site
											{
												OFFSET -1.082298 3.499527 0.457670
											}
										}
									}
								}
								JOINT LeftHandRing1
								{
									OFFSET 13.966164 -0.268127 -3.067488
									CHANNELS 3 Xrotation Yrotation Zrotation
									JOINT LeftHandRing2
									{
										OFFSET 3.162567 0.000000 0.000000
										CHANNELS 3 Xrotation Yrotation Zrotation
										JOINT LeftHandRing3
										{
											OFFSET 3.324348 0.000000 0.000000
											CHANNELS 3 Xrotation Yrotation Zrotation
											End Site
											{
												OFFSET -0.861900 3.184998 0.405154
											}
										}
									}
								}
								JOINT LeftHandPinky1
								{
									OFFSET 13.131393 -0.168503 -5.746925
									CHANNELS 3 Xrotation Yrotation Zrotation
									JOINT LeftHandPinky2
									{
										OFFSET 2.849182 0.000000 0.000000
										CHANNELS 3 Xrotation Yrotation Zrotation
										JOINT LeftHandPinky3
										{
											OFFSET 2.805038 0.000000 0.000000
											CHANNELS 3 Xrotation Yrotation Zrotation
											End Site
											{
												OFFSET -0.882500 2.642609 0.325652
											}
										}
									}
								}
							}
							JOINT Left_Sleeve
							{
								OFFSET 6.592125 -0.646545 0.805568
								CHANNELS 3 Xrotation Yrotation Zrotation
								End Site
								{
									OFFSET -0.000179 20.275787 -0.000000
								}
							}
						}
					}
				}
				JOINT RightShoulder
				{
					OFFSET -5.731700 15.108002 -2.763700
					CHANNELS 3 Xrotation Yrotation Zrotation
					JOINT RightArm
					{
						OFFSET -9.825497 2.506317 -1.597400
						CHANNELS 3 Xrotation Yrotation Zrotation
						JOINT RightForeArm
						{
							OFFSET -21.966242 0.000000 0.000000
							CHANNELS 3 Xrotation Yrotation Zrotation
							JOINT RightHand
							{
								OFFSET -33.879032 0.000000 0.000000
								CHANNELS 3 Xrotation Yrotation Zrotation
								JOINT RightHandThumb1
								{
									OFFSET -6.715286 -2.359680 3.363841
									CHANNELS 3 Xrotation Yrotation Zrotation
									JOINT RightHandThumb2
									{
										OFFSET -2.507072 -1.447464 1.447461
										CHANNELS 3 Xrotation Yrotation Zrotation
										JOINT RightHandThumb3
										{
											OFFSET -2.898338 -1.673355 1.673357
											CHANNELS 3 Xrotation Yrotation Zrotation
											End Site
											{
												OFFSET 0.295959 3.727692 -0.131651
											}
										}
									}
								}
								JOINT RightHandIndex1
								{
									OFFSET -14.190811 -0.254547 3.840278
									CHANNELS 3 Xrotation Yrotation Zrotation
									JOINT RightHandIndex2
									{
										OFFSET -3.551727 0.000000 -0.000000
										CHANNELS 3 Xrotation Yrotation Zrotation
										JOINT RightHandIndex3
										{
											OFFSET -2.894196 0.000000 0.000000
											CHANNELS 3 Xrotation Yrotation Zrotation
											End Site
											{
												OFFSET 1.000603 2.690872 0.366626
											}
										}
									}
								}
								JOINT RightHandMiddle1
								{
									OFFSET -13.776489 0.000000 0.000000
									CHANNELS 3 Xrotation Yrotation Zrotation
									JOINT RightHandMiddle2
									{
										OFFSET -3.438232 0.000000 0.000000
										CHANNELS 3 Xrotation Yrotation Zrotation
										JOINT RightHandMiddle3
										{
											OFFSET -3.691551 0.000000 0.000000
											CHANNELS 3 Xrotation Yrotation Zrotation
											End Site
											{
												OFFSET 1.082298 3.499527 0.457670
											}
										}
									}
								}
								JOINT RightHandRing1
								{
									OFFSET -13.966164 -0.268127 -3.067488
									CHANNELS 3 Xrotation Yrotation Zrotation
									JOINT RightHandRing2
									{
										OFFSET -3.162567 0.000000 0.000000
										CHANNELS 3 Xrotation Yrotation Zrotation
										JOINT RightHandRing3
										{
											OFFSET -3.324348 0.000000 0.000000
											CHANNELS 3 Xrotation Yrotation Zrotation
											End Site
											{
												OFFSET 0.861900 3.184998 0.405154
											}
										}
									}
								}
								JOINT RightHandPinky1
								{
									OFFSET -13.131393 -0.168503 -5.746925
									CHANNELS 3 Xrotation Yrotation Zrotation
									JOINT RightHandPinky2
									{
										OFFSET -2.849182 0.000000 0.000000
										CHANNELS 3 Xrotation Yrotation Zrotation
										JOINT RightHandPinky3
										{
											OFFSET -2.805038 0.000000 0.000000
											CHANNELS 3 Xrotation Yrotation Zrotation
											End Site
											{
												OFFSET 0.882500 2.642609 0.325652
											}
										}
									}
								}
							}
							JOINT Right_Sleeve
							{
								OFFSET -6.592125 -0.646545 0.805568
								CHANNELS 3 Xrotation Yrotation Zrotation
								End Site
								{
									OFFSET 0.000179 20.275787 -0.000000
								}
							}
						}
					}
				}
				JOINT Bind_Right_JacketString
				{
					OFFSET -3.534800 11.969597 7.200700
					CHANNELS 3 Xrotation Yrotation Zrotation
					JOINT Bind_Right_JacketString1
					{
						OFFSET -0.319900 -6.102600 2.794100
						CHANNELS 3 Xrotation Yrotation Zrotation
						End Site
						{
							OFFSET 0.000000 6.719452 0.000000
						}
					}
				}
				JOINT Bind_Left_JacketString
				{
					OFFSET 2.904800 11.969597 7.200700
					CHANNELS 3 Xrotation Yrotation Zrotation
					JOINT Bind_Left_JacketString1
					{
						OFFSET 0.364800 -5.904503 3.186800
						CHANNELS 3 Xrotation Yrotation Zrotation
						End Site
						{
							OFFSET 0.000000 6.719513 0.000000
						}
					}
				}
				JOINT HairE
				{
					OFFSET 5.915200 17.612701 -11.592200
					CHANNELS 3 Xrotation Yrotation Zrotation
					JOINT HairE1
					{
						OFFSET 0.289200 -7.171898 -1.284500
						CHANNELS 3 Xrotation Yrotation Zrotation
						End Site
						{
							OFFSET 0.000000 7.291756 0.000000
						}
					}
				}
				JOINT HairF
				{
					OFFSET -0.864800 17.612701 -11.592200
					CHANNELS 3 Xrotation Yrotation Zrotation
					JOINT HairF1
					{
						OFFSET 0.000000 -14.087097 -2.127501
						CHANNELS 3 Xrotation Yrotation Zrotation
						End Site
						{
							OFFSET 0.000000 14.246841 0.000000
						}
					}
				}
				JOINT HairG
				{
					OFFSET -8.087700 17.612701 -11.592200
					CHANNELS 3 Xrotation Yrotation Zrotation
					JOINT HairG1
					{
						OFFSET -0.293600 -6.081398 -0.910100
						CHANNELS 3 Xrotation Yrotation Zrotation
						End Site
						{
							OFFSET 0.000000 6.156120 0.000000
						}
					}
				}
			}
		}
	}
	JOINT Pouch
	{
		OFFSET 0.000000 4.394501 10.847300
		CHANNELS 3 Xrotation Yrotation Zrotation
		End Site
		{
			OFFSET 0.000000 21.880577 0.000000
		}
	}
	JOINT Bag
	{
		OFFSET -13.229000 4.813004 -0.593300
		CHANNELS 3 Xrotation Yrotation Zrotation
		End Site
		{
			OFFSET 0.000000 21.880577 0.000000
		}
	}
	JOINT OccupyGuyFacialAnim_Joint
	{
		OFFSET 1.000000 -70.206398 -1.655000
		CHANNELS 3 Xrotation Yrotation Zrotation
		End Site
		{
			OFFSET 0.000000 21.880577 0.000000
		}
	}
}
MOTION
Frames: 4
Frame Time: 0.033333
-0.271003 9.164677 -2.470047 -70.747455 11.372576 6.121783 0.000002 0.000001 0.000001 -62.148875 4.711792 6.830787 63.794930 9.011227 -1.474607 4.877849 -2.743217 14.366856 0.000001 0.000001 -0.000001 0.000004 -0.000001 -0.000001 -57.307582 1.245586 -13.975403 66.216935 -0.115840 2.330125 40.862720 -3.895273 -1.424400 0.000000 -0.000000 -0.000000 0.000004 -0.000000 -0.000000 10.484554 -2.115729 -1.012554 21.019596 -3.315509 -0.311891 21.019605 -3.315507 -0.311892 25.778541 0.195225 5.667943 0.500581 -2.654474 4.064565 0.000001 -0.000000 -0.000000 0.000001 -0.000000 -0.000000 0.000001 -0.000000 -0.000000 0.000001 -0.000000 -0.000000 -0.000000 -0.000000 -0.000000 0.000001 -0.000000 -0.000000 -0.000000 -0.000000 -0.000000 0.000001 -0.000000 -0.000000 0.000001 -0.000000 -0.000000 2.686122 -12.449155 12.237874 64.662630 -11.880981 -83.688313 -0.830744 -55.505560 1.011910 46.839948 4.607455 88.352281 -31.683646 -4.794876 -2.966295 -4.652817 12.788566 1.805616 0.000001 0.000001 -0.000000 -5.508811 -17.394265 -7.816048 -2.879258 -0.309645 -38.050677 0.000001 0.000001 0.000002 -2.850412 -6.135405 -16.223480 -1.451956 -1.410402 -21.845660 0.000001 0.000001 0.000001 3.647896 8.331568 -20.900131 0.522536 -2.497687 -27.123725 -0.000002 0.000001 -0.000002 19.891579 28.872531 -28.093183 1.435783 -6.597297 -44.261900 0.000001 -0.000001 0.000001 0.000000 -0.000000 -0.000000 1.453408 2.009988 -12.724197 51.003662 27.017759 74.627139 -4.644912 47.035705 0.821132 54.121695 6.920156 -71.757797 -18.044195 11.602024 -6.548705 -20.546876 -24.298956 -11.408621 0.000000 -0.000001 0.000001 -7.429598 9.263907 -3.981942 -0.740369 -0.852763 31.573584 -0.000001 -0.000000 0.000000 -4.185288 1.618109 2.487115 -0.527318 0.433120 15.620216 0.000000 -0.000000 0.000001 3.417334 -10.587652 2.694482 0.300981 3.260321 25.786058 0.000001 -0.000000 -0.000003 10.375564 -22.713512 -2.223091 1.915127 11.126716 46.626816 -0.000000 0.000000 0.000001 0.000001 0.000001 0.000001 -0.000001 -0.000000 0.000000 -0.000001 0.000000 0.000000 -0.000001 -0.000000 -0.000000 -0.000001 -0.000000 -0.000000 -0.000001 -0.000000 0.000000 -0.000001 0.000000 -0.000000 -0.000001 -0.000000 -0.000000 -0.000001 -0.000000 -0.000000 -0.000001 -0.000000 0.000000 -0.000001 0.000000 -0.000000 0.000002 0.000001 0.000001 0.000002 0.000001 0.000001 0.000002 0.000001 0.000001 
-0.249722 9.368370 -2.638599 -66.389753 7.956638 3.732977 0.000001 0.000001 -0.000000 -63.208797 2.749300 7.326700 61.221506 3.963540 -0.727540 6.265937 -1.660192 11.945100 0.000003 -0.000000 -0.000000 -0.000001 0.000000 0.000001 -60.922678 0.505508 -10.816399 63.150946 -1.900849 2.058020 33.241680 -5.416603 -5.429550 0.000002 -0.000001 -0.000000 0.000002 -0.000000 -0.000000 9.299388 -1.400338 -0.718933 18.622231 -2.009327 -0.205091 18.622226 -2.009326 -0.205092 27.209402 -0.333503 3.860663 1.432158 -3.544974 2.839363 0.000000 -0.000000 -0.000000 0.000000 -0.000000 -0.000000 0.000000 -0.000000 -0.000000 0.000000 -0.000000 0.000000 -0.000001 -0.000000 0.000000 0.000000 -0.000000 0.000000 -0.000001 -0.000000 0.000000 0.000000 -0.000000 -0.000000 0.000000 -0.000000 -0.000000 1.124197 -11.348402 8.767181 65.034336 -6.816386 -83.626814 3.784944 -51.258582 2.300459 47.651750 2.919616 89.412538 -31.683656 -4.794882 -2.966299 -4.652814 12.788568 1.805616 -0.000000 -0.000000 -0.000001 -5.508808 -17.394287 -7.816049 -2.879257 -0.309648 -38.050680 0.000001 0.000000 0.000003 -2.850413 -6.135424 -16.223479 -1.451954 -1.410403 -21.845658 -0.000000 -0.000001 0.000001 3.647901 8.331539 -20.900119 0.522539 -2.497671 -27.123728 -0.000000 0.000001 -0.000004 19.891577 28.872504 -28.093167 1.435777 -6.597293 -44.261887 -0.000000 -0.000002 0.000003 0.000002 0.000000 -0.000001 -0.868266 4.388736 -8.637222 53.933619 10.053995 78.057348 9.029647 46.645254 -6.692989 56.733187 10.067896 -70.800525 -18.044187 11.602047 -6.548708 -20.546884 -24.298968 -11.408633 0.000004 -0.000001 0.000002 -7.429597 9.263899 -3.981942 -0.740376 -0.852754 31.573598 -0.000000 -0.000001 0.000000 -4.185291 1.618103 2.487114 -0.527319 0.433115 15.620217 0.000000 -0.000001 0.000001 3.417329 -10.587638 2.694486 0.300984 3.260344 25.786054 0.000001 -0.000001 -0.000004 10.375564 -22.713507 -2.223092 1.915125 11.126703 46.626829 -0.000000 0.000001 0.000002 -0.000000 0.000001 0.000001 0.000000 0.000000 -0.000000 -0.000001 -0.000000 0.000000 0.000000 0.000000 -0.000000 0.000000 0.000000 -0.000000 0.000000 0.000000 -0.000000 -0.000001 -0.000000 0.000000 0.000000 0.000000 -0.000000 0.000000 0.000000 -0.000000 0.000000 0.000000 -0.000000 -0.000001 -0.000000 0.000000 0.000001 0.000001 -0.000000 0.000001 0.000001 -0.000000 0.000001 0.000001 -0.000000 
-0.194172 9.375843 -2.874439 -62.276640 3.731564 1.587156 0.000001 0.000000 -0.000000 -64.312795 0.349925 8.721751 58.401601 1.369897 -0.051669 8.421373 -0.736183 7.887903 -0.000001 -0.000001 -0.000002 0.000002 0.000000 -0.000001 -65.864204 -1.299141 -7.903230 62.438263 -4.311316 1.853400 27.584793 -5.741572 -9.191552 -0.000002 0.000001 -0.000000 -0.000001 0.000000 -0.000000 8.028839 -0.724361 -0.480212 16.065477 -0.781218 -0.107657 16.065455 -0.781218 -0.107659 28.743191 -0.705023 1.988426 3.113921 -4.078329 2.053866 0.000001 0.000000 0.000000 0.000001 0.000000 0.000000 0.000001 0.000000 -0.000000 0.000001 0.000000 -0.000000 0.000000 0.000000 -0.000000 0.000001 0.000000 -0.000000 0.000000 0.000000 -0.000000 0.000001 0.000000 0.000000 0.000001 0.000000 0.000000 -0.148233 -10.301731 5.595143 66.258169 -2.033665 -83.974587 8.196957 -47.710371 2.958186 47.784017 1.743435 90.693540 -31.683663 -4.794885 -2.966297 -4.652811 12.788593 1.805623 0.000001 0.000003 0.000000 -5.508807 -17.394269 -7.816043 -2.879247 -0.309622 -38.050680 0.000002 0.000001 -0.000002 -2.850410 -6.135395 -16.223482 -1.451949 -1.410427 -21.845653 -0.000000 0.000000 0.000001 3.647895 8.331575 -20.900128 0.522544 -2.497688 -27.123728 -0.000001 -0.000001 -0.000003 19.891577 28.872518 -28.093174 1.435790 -6.597291 -44.261911 -0.000006 0.000000 0.000001 0.000002 0.000001 -0.000001 -2.855436 6.855939 -6.697162 56.772280 -5.836415 81.700421 22.400753 45.175312 -13.942924 59.717785 14.104892 -69.773360 -18.044188 11.602067 -6.548700 -20.546886 -24.298967 -11.408646 -0.000004 0.000000 0.000003 -7.429601 9.263893 -3.981942 -0.740369 -0.852761 31.573577 -0.000001 0.000000 0.000000 -4.185291 1.618101 2.487114 -0.527320 0.433108 15.620211 -0.000000 0.000000 -0.000001 3.417333 -10.587638 2.694485 0.300974 3.260324 25.786051 0.000000 -0.000001 -0.000003 10.375563 -22.713494 -2.223092 1.915137 11.126713 46.626805 -0.000001 -0.000000 -0.000003 0.000003 0.000000 -0.000002 -0.000000 0.000000 0.000000 -0.000002 0.000000 -0.000000 -0.000000 0.000000 0.000000 -0.000000 0.000000 0.000000 -0.000000 0.000000 0.000000 -0.000002 0.000000 0.000000 -0.000000 0.000000 0.000000 -0.000000 0.000000 0.000000 -0.000000 0.000000 0.000000 -0.000002 0.000000 0.000000 0.000001 0.000000 -0.000000 0.000001 0.000000 -0.000000 0.000001 0.000000 -0.000000 
-0.204819 9.340267 -2.992371 -59.093663 -0.345345 0.081754 -0.000001 0.000000 0.000000 -65.140136 -2.045056 10.665624 55.955321 0.881936 0.471532 11.305414 -0.205404 2.959794 0.000003 -0.000000 -0.000000 0.000003 -0.000000 0.000000 -77.256898 -6.811336 -7.062399 75.390740 -9.484360 1.874650 18.029700 -4.363237 -19.026503 0.000000 0.000001 0.000001 0.000002 0.000001 0.000000 7.020293 -0.337109 -0.388554 14.042509 0.181749 0.123497 14.042488 0.181749 0.123497 30.704904 -0.960170 -0.031515 5.477525 -4.408308 1.714959 -0.000000 -0.000000 -0.000000 -0.000000 -0.000000 -0.000000 -0.000000 -0.000000 0.000000 -0.000000 -0.000000 -0.000000 -0.000000 0.000000 -0.000000 -0.000000 -0.000000 -0.000000 -0.000000 0.000000 -0.000000 -0.000000 -0.000000 -0.000000 -0.000000 -0.000000 -0.000000 -1.682365 -9.537917 1.438307 68.180267 3.153670 -84.263709 11.845274 -44.763670 3.067084 47.317741 0.805226 92.427923 -31.683649 -4.794900 -2.966302 -4.652816 12.788587 1.805618 0.000001 -0.000002 -0.000000 -5.508805 -17.394282 -7.816042 -2.879258 -0.309642 -38.050663 0.000001 0.000001 -0.000000 -2.850413 -6.135433 -16.223480 -1.451958 -1.410391 -21.845655 0.000000 0.000001 0.000003 3.647899 8.331560 -20.900119 0.522545 -2.497693 -27.123718 -0.000002 0.000002 -0.000003 19.891572 28.872507 -28.093166 1.435787 -6.597310 -44.261893 0.000001 0.000001 0.000001 0.000003 0.000000 0.000000 -4.611418 9.846489 -5.672540 59.804447 -19.581425 85.430941 33.579297 42.862647 -19.886400 62.568139 18.002497 -69.573953 -18.044183 11.602040 -6.548711 -20.546894 -24.298982 -11.408640 0.000003 -0.000003 -0.000000 -7.429601 9.263882 -3.981944 -0.740382 -0.852747 31.573584 -0.000002 0.000001 0.000000 -4.185291 1.618093 2.487111 -0.527316 0.433110 15.620211 0.000001 -0.000000 -0.000001 3.417331 -10.587656 2.694484 0.300979 3.260323 25.786054 0.000000 -0.000001 -0.000003 10.375560 -22.713517 -2.223089 1.915119 11.126714 46.626809 -0.000000 0.000001 -0.000003 0.000001 -0.000001 -0.000000 -0.000000 0.000000 0.000000 -0.000002 0.000000 0.000000 -0.000000 0.000000 0.000000 -0.000000 0.000000 0.000000 -0.000000 0.000000 0.000000 -0.000002 0.000000 0.000000 -0.000000 0.000000 0.000000 -0.000000 0.000000 0.000000 -0.000000 0.000000 0.000000 -0.000002 0.000000 0.000000 -0.000001 0.000000 0.000000 -0.000001 0.000000 0.000000 -0.000001 0.000000 0.000000 
